<svg xmlns="http://www.w3.org/2000/svg" viewBox="0 0 411.68 411.68"><defs><style>.cls-1{fill:#ba2e2a;stroke:#fff;stroke-miterlimit:10;}.cls-2{fill:#fff;}</style></defs><title>logo completo</title><g id="Capa_2" data-name="Capa 2"><g id="Capa_1-2" data-name="Capa 1"><rect class="cls-1" x="0.5" y="0.5" width="410.68" height="410.68"/><path class="cls-2" d="M152.69,148.06H85.1v52.07h80.35v28H48.55V45.93H165.2V74.09H85.1V119.9h67.59Z"/><path class="cls-2" d="M361.29,119.45H205.2V79.56H361.29Zm0,75.09H205.2v-39.9H361.29Z"/><path class="cls-2" d="M77.74,253.6,79,269a39.27,39.27,0,0,1,14.06-13,40.44,40.44,0,0,1,19.55-4.57q11.2,0,19.17,4.95t12.07,15a40.41,40.41,0,0,1,14-14.65,38,38,0,0,1,20.25-5.27q17.24,0,27.2,12.22t10,37.32v69.16H183.84V300.89q0-14-4.31-19.5t-12.82-5.49a22,22,0,0,0-11.58,3,21.6,21.6,0,0,0-7.81,8.24c0,1.37,0,2.53.11,3.5s.11,2,.11,3v76.59H116.19V300.89q0-13.68-4.3-19.34T99,275.9a24.48,24.48,0,0,0-11.15,2.42,21.57,21.57,0,0,0-7.92,6.84v85H48.55V253.6Z"/><path class="cls-2" d="M286.83,346.47q8,0,12.79-4.81t4.76-12.84H332.5l.21.63q.42,17.34-12.9,29t-33,11.68q-25.36,0-39.21-16.23t-13.85-41.49v-3.17q0-25.15,13.8-41.48t39.05-16.33q20.92,0,33.72,12.05t12.37,31.71l-.21.63H304.38q0-8.88-4.7-14.74t-13.06-5.87q-11.94,0-17,9.56t-5,24.47v3.17q0,15.22,5,24.63T286.83,346.47Z"/><path class="cls-2" d="M376.64,295.84H342.81v-6.62l15.62-17.66a39.42,39.42,0,0,0,5-7,11.58,11.58,0,0,0,1.47-5.24,7.55,7.55,0,0,0-1.56-5,5.74,5.74,0,0,0-4.68-1.87,6,6,0,0,0-5.09,2.39,9.78,9.78,0,0,0-1.8,6.06h-9.83l-.07-.21a15,15,0,0,1,4.43-11.38q4.61-4.65,12.36-4.65c5.18,0,9.19,1.32,12.06,4A13.82,13.82,0,0,1,375,259.3a14.93,14.93,0,0,1-2.41,8.28,93.47,93.47,0,0,1-8.29,10.35l-8.31,10,.07.17h20.6Z"/></g></g></svg>